<svg width="109" height="93" viewBox="0 0 109 93" fill="none" xmlns="http://www.w3.org/2000/svg">
<path d="M96.5001 75.2927L98.5157 81.2988L88.0959 82.0344C83.3092 80.9458 80.2297 83.9564 79.2884 85.5978C73.6453 94.605 65.5327 92.2577 62.1818 89.9581C57.5705 83.3321 52.4913 84.7973 50.5281 86.3582C42.0977 93.2522 36.319 86.6718 34.4835 82.5199C33.7283 80.2697 30.6169 75.4781 24.213 74.3137C17.8091 73.1492 10.7871 68.0133 8.07664 65.5909C-2.01542 55.2813 0.798478 35.6701 3.46694 27.1532C12.8986 9.67286 25.3491 9.90529 30.3954 12.2065C35.6086 14.5659 42.2845 11.6222 44.9707 9.85537C51.2814 -3.74988 59.4224 0.218939 62.704 3.90401C61.3085 9.09978 71.5081 10.5405 76.7823 10.6114C87.215 11.5283 87.765 21.7633 86.7359 26.7662C83.6591 33.0123 86.7465 35.6359 88.6749 36.1669C95.8583 35.9652 95.7171 45.7326 94.7486 50.6416C92.6901 55.7064 95.8166 60.9052 97.6371 62.8715C103.801 63.4537 106.352 66.169 106.857 67.4539C111.864 73.0194 105.402 78.3249 101.546 80.2819L99.5301 74.2759C106.206 72.0353 102.593 70.3391 99.9526 69.7711C92.398 69.9206 90.2608 60.8736 90.1366 56.3315C95.0351 46.0278 88.5017 41.0851 84.6226 39.9016C78.6265 37.0539 79.6255 31.2696 80.8745 28.7333C84.2981 16.4063 75.426 14.8589 70.562 15.626C63.8983 17.3764 61.0885 14.4056 60.5165 12.7014C58.9486 3.28664 51.965 8.29968 48.6693 11.9831C44.6755 16.9463 35.7666 17.0128 31.8114 16.4256C24.8741 13.5403 18.6856 17.2225 16.4585 19.4242C10.8859 23.5035 9.70677 38.8843 9.81377 46.0648C7.48127 60.7207 20.5364 69.0123 27.3555 71.326C34.4182 70.3696 41.0504 79.8005 43.4836 84.6355C57.1762 77.8753 62.5319 82.0535 63.4982 84.9877C68.7298 90.1685 75.7119 83.7789 78.5491 79.9365C81.6334 77.7968 91.8015 75.9491 96.5001 75.2927Z" fill="white"/>
</svg>
