<svg width="1512" height="809" viewBox="0 0 1512 809" fill="none" xmlns="http://www.w3.org/2000/svg">
<path d="M172.996 812.512L471.917 458.031L644.313 525.135L606.412 846.315L172.996 812.512Z" fill="url(#paint0_linear_264_400)" fill-opacity="0.05"/>
<path d="M1447.53 -77.9985L1740.77 281.197L1643.01 438.251L1334.34 341.738L1447.53 -77.9985Z" fill="url(#paint1_linear_264_400)" fill-opacity="0.05"/>
<path d="M155.042 823.58L46.7487 354.107L210.94 233.255L455.233 445.274L155.042 823.58Z" fill="url(#paint2_linear_264_400)" fill-opacity="0.05"/>
<path d="M522.036 79.6078L458.162 409.99L214.851 209.879L245.737 50.1251L522.036 79.6078Z" fill="url(#paint3_linear_264_400)" fill-opacity="0.05"/>
<path d="M1238.25 1247.81L850.5 863L1006.5 747L1512.5 784.498L1238.25 1247.81Z" fill="url(#paint4_linear_264_400)" fill-opacity="0.05"/>
<path d="M1018.82 722.889L1317.74 368.408L1490.14 435.513L1452.24 756.693L1018.82 722.889Z" fill="url(#paint5_linear_264_400)" fill-opacity="0.05"/>
<path d="M1002.78 719.825L885.124 271.656L1039.11 169.782L1279.69 385.909L1002.78 719.825Z" fill="url(#paint6_linear_264_400)" fill-opacity="0.05"/>
<path d="M529.052 879.961L701.336 430.016L905.027 421.43L989.317 733.722L529.052 879.961Z" fill="url(#paint7_linear_264_400)" fill-opacity="0.05"/>
<path d="M739.122 104.781L897.035 401.926L582.016 399.146L505.658 255.463L739.122 104.781Z" fill="url(#paint8_linear_264_400)" fill-opacity="0.05"/>
<defs>
<linearGradient id="paint0_linear_264_400" x1="633.829" y1="659.556" x2="408.172" y2="618.847" gradientUnits="userSpaceOnUse">
<stop stop-color="#3B278F"/>
<stop offset="1" stop-color="white"/>
</linearGradient>
<linearGradient id="paint1_linear_264_400" x1="1448.5" y1="411.5" x2="1480" y2="58.5" gradientUnits="userSpaceOnUse">
<stop stop-color="#3B278F"/>
<stop offset="1" stop-color="white"/>
</linearGradient>
<linearGradient id="paint2_linear_264_400" x1="184.146" y1="507.205" x2="339.837" y2="361.467" gradientUnits="userSpaceOnUse">
<stop stop-color="#292B78"/>
<stop offset="1" stop-color="white"/>
</linearGradient>
<linearGradient id="paint3_linear_264_400" x1="398.5" y1="219" x2="211" y2="229.5" gradientUnits="userSpaceOnUse">
<stop stop-color="#3B278F"/>
<stop offset="1" stop-color="white"/>
</linearGradient>
<linearGradient id="paint4_linear_264_400" x1="1389.5" y1="792.001" x2="1043" y2="756.001" gradientUnits="userSpaceOnUse">
<stop stop-color="#3B278F"/>
<stop offset="1" stop-color="white"/>
</linearGradient>
<linearGradient id="paint5_linear_264_400" x1="1401" y1="587" x2="1044" y2="713" gradientUnits="userSpaceOnUse">
<stop stop-color="#3B278F"/>
<stop offset="1" stop-color="white"/>
</linearGradient>
<linearGradient id="paint6_linear_264_400" x1="1304.5" y1="428" x2="898" y2="303" gradientUnits="userSpaceOnUse">
<stop stop-color="#3B278F"/>
<stop offset="1" stop-color="white"/>
</linearGradient>
<linearGradient id="paint7_linear_264_400" x1="763.5" y1="455.5" x2="897" y2="766" gradientUnits="userSpaceOnUse">
<stop stop-color="#292B78"/>
<stop offset="1" stop-color="white"/>
</linearGradient>
<linearGradient id="paint8_linear_264_400" x1="897" y1="424.5" x2="615.5" y2="249.5" gradientUnits="userSpaceOnUse">
<stop stop-color="white"/>
<stop offset="1" stop-color="white" stop-opacity="0.05"/>
<stop offset="1" stop-color="#292B78"/>
</linearGradient>
</defs>
</svg>
