<svg width="216" height="216" viewBox="0 0 216 216" fill="none" xmlns="http://www.w3.org/2000/svg">
<path d="M136 110.234L97.3333 66.3711L80 149.371L136 110.234Z" fill="white"/>
<circle opacity="0.21" cx="108" cy="108" r="108" fill="white" fill-opacity="0.17"/>
<path d="M14.9023 54.25C24.3374 37.9079 37.9079 24.3374 54.25 14.9023C70.5921 5.46716 89.1298 0.499993 108 0.499995" stroke="white" stroke-opacity="0.24"/>
<path d="M14.9023 54.25C24.3374 37.9079 37.9079 24.3374 54.25 14.9023C70.5921 5.46716 89.1298 0.499993 108 0.499995" stroke="white" stroke-opacity="0.24"/>
<path d="M201.098 161.75C191.663 178.092 178.092 191.663 161.75 201.098C145.408 210.533 126.87 215.5 108 215.5" stroke="white" stroke-opacity="0.24"/>
<path d="M201.098 161.75C191.663 178.092 178.092 191.663 161.75 201.098C145.408 210.533 126.87 215.5 108 215.5" stroke="white" stroke-opacity="0.24"/>
</svg>
