<svg width="366" height="179" viewBox="0 0 366 179" fill="none" xmlns="http://www.w3.org/2000/svg">
<ellipse opacity="0.21" cx="183" cy="89.5" rx="183" ry="89.5" fill="white" fill-opacity="0.17"/>
<path d="M24.8406 45.1315C40.8312 31.5859 63.8611 20.3146 91.6359 12.4719C119.407 4.63043 150.918 0.500001 183 0.500003" stroke="white" stroke-opacity="0.24"/>
<path d="M24.8406 45.1315C40.8312 31.5859 63.8611 20.3146 91.6359 12.4719C119.407 4.63043 150.918 0.500001 183 0.500003" stroke="white" stroke-opacity="0.24"/>
<path d="M341.159 133.868C325.169 147.414 302.139 158.685 274.364 166.528C246.593 174.37 215.082 178.5 183 178.5" stroke="white" stroke-opacity="0.24"/>
<path d="M341.159 133.868C325.169 147.414 302.139 158.685 274.364 166.528C246.593 174.37 215.082 178.5 183 178.5" stroke="white" stroke-opacity="0.24"/>
</svg>
