<svg width="1230" height="942" viewBox="0 0 1230 942" fill="none" xmlns="http://www.w3.org/2000/svg">
<path d="M131 99.7333C204 66.1867 214.266 21.5333 218.828 0C215.406 27.2 248.484 64.9778 277 83.8667C235.025 85.68 220.729 153.378 218.828 187C201.491 128.973 153.052 104.644 131 99.7333Z" fill="black" fill-opacity="0.2"/>
<path d="M1156 335.667C1193 318.624 1198.2 295.939 1200.52 285C1198.78 298.818 1215.55 318.01 1230 327.606C1208.72 328.527 1201.48 362.919 1200.52 380C1191.73 350.521 1167.18 338.162 1156 335.667Z" fill="black" fill-opacity="0.2"/>
<path d="M0 698.867C203 605.402 231.547 480.994 244.234 421C234.719 496.782 326.703 602.034 406 654.661C289.275 659.713 249.521 848.325 244.234 942C196.022 780.332 61.3229 712.549 0 698.867Z" fill="black" fill-opacity="0.2"/>
</svg>
