<svg width="96" height="96" viewBox="0 0 96 96" fill="none" xmlns="http://www.w3.org/2000/svg">
<path fill-rule="evenodd" clip-rule="evenodd" d="M36.5389 0.0281982C32.1589 0.0282002 28.7729 2.32785 26.3352 5.2084C24.0949 7.85564 22.5881 11.0622 21.729 13.6959C20.8544 13.4823 20.0024 13.4046 19.3354 13.4727L19.6208 16.727C19.9269 16.6957 20.5406 16.7347 21.2797 16.9416C22.0055 17.1447 22.7429 17.4797 23.3363 17.9477C23.9206 18.4085 24.3246 18.9626 24.5087 19.6262C24.691 20.2835 24.7096 21.2351 24.2109 22.5994C23.7713 23.8018 22.8598 24.8232 21.5127 25.8611C20.6315 26.5401 19.7043 27.1299 18.7045 27.7659L18.7045 27.7659C18.1141 28.1415 17.4984 28.5331 16.8521 28.9687C15.2095 30.0756 13.4986 31.394 12.2375 33.1861C10.9399 35.0299 10.164 37.3082 10.2874 40.2087C10.5601 46.6185 14.1485 51.4167 16.9303 55.1366H16.9303C17.0692 55.3221 17.206 55.5051 17.3403 55.6853C18.8229 57.6764 19.942 59.2639 20.465 60.7262C20.7133 61.4204 20.7996 62.0203 20.7482 62.5698C20.6976 63.1104 20.5043 63.7082 20.0442 64.3906C19.4361 65.2927 18.7622 65.6204 17.9341 65.6985C16.9922 65.7876 15.8559 65.5502 14.4017 65.1542C14.1609 65.0889 13.9115 65.019 13.6549 64.9471L13.651 64.9458L13.6496 64.9454H13.6494H13.6493C12.4475 64.6087 11.0891 64.2283 9.73181 64.0433C8.04665 63.8136 6.21496 63.8573 4.39615 64.67C2.64682 65.4521 1.43666 66.7347 0.809449 68.2825C0.190013 69.8115 0.187532 71.4802 0.644043 72.965C1.56089 75.947 4.37513 78.3189 8.09285 77.7375C9.56884 77.5066 10.9183 77.3125 12.1352 77.2631C13.3588 77.2132 14.3313 77.317 15.0792 77.6031C15.7815 77.8715 16.2986 78.303 16.6718 79.0115C17.0687 79.7645 17.3659 80.9548 17.3659 82.8389H20.3957C20.3957 80.6271 20.0529 78.8145 19.3059 77.3963C18.5353 75.9335 17.4047 75.0244 16.0914 74.5222C14.8236 74.0372 13.4127 73.9399 12.021 73.9963C10.6227 74.0535 9.1251 74.2734 7.65827 74.5026C5.49039 74.8417 4.00584 73.517 3.51975 71.9358C3.27481 71.139 3.29485 70.3095 3.58557 69.592C3.86852 68.8937 4.45614 68.1815 5.55587 67.69C6.72271 67.1686 7.977 67.0992 9.35218 67.2863C10.4976 67.4424 11.6251 67.7574 12.8187 68.0908C13.0955 68.1681 13.3758 68.2461 13.6607 68.3237C15.0898 68.7127 16.6855 69.0976 18.1982 68.955C19.8248 68.8014 21.3283 68.043 22.4945 66.313C23.2288 65.2237 23.6515 64.0857 23.7626 62.8983C23.8729 61.7199 23.6666 60.5983 23.2917 59.5499C22.5682 57.5265 21.1189 55.5403 19.7021 53.6378C19.6155 53.5218 19.5288 53.4053 19.442 53.2889C16.5458 49.4047 13.54 45.3735 13.3139 40.0588C13.2239 37.9433 13.7702 36.4137 14.6505 35.1628C15.5672 33.8602 16.89 32.7972 18.4571 31.7412C18.9584 31.4033 19.5063 31.0538 20.0693 30.6945H20.0694C21.1557 30.0015 22.2985 29.2724 23.2735 28.5212C24.8081 27.3388 26.2745 25.8637 27.0293 23.7987C27.7202 21.9088 27.8288 20.1941 27.4113 18.689C26.9956 17.1903 26.11 16.0862 25.1243 15.3088C24.9371 15.1612 24.7449 15.0241 24.5495 14.897C25.2995 12.5547 26.6351 9.70194 28.5726 7.41247C30.6134 5.00092 33.2415 3.297 36.5389 3.297C37.8551 3.297 38.7994 3.64111 39.522 4.12292C40.2605 4.61516 40.8468 5.30446 41.3664 6.11366C41.764 6.73313 42.0795 7.3471 42.4075 7.98533V7.98541L42.4079 7.98578C42.5256 8.21545 42.6453 8.44831 42.771 8.68571C43.1717 9.44256 43.7478 10.4912 44.623 11.0659C45.9364 11.9283 47.1332 12.084 48.3462 11.9517C48.9086 11.8903 49.4793 11.7666 50.0228 11.6459L50.1781 11.6114C50.689 11.4976 51.2067 11.3823 51.7865 11.2846C52.3694 11.1863 53.1033 11.4096 53.9066 11.9389C54.6886 12.4544 55.3423 13.1348 55.6779 13.5693L58.0055 11.4765C57.4882 10.8066 56.5891 9.87637 55.4859 9.14935C54.4035 8.4361 52.9193 7.78512 51.3188 8.05496C50.6621 8.16569 50.0743 8.29668 49.5691 8.40925L49.4119 8.44427C48.8544 8.56808 48.428 8.65723 48.0413 8.69944C47.3566 8.77413 46.8472 8.69973 46.1985 8.27368C46.0924 8.20413 45.8599 7.92968 45.402 7.06443C45.313 6.89649 45.2168 6.70903 45.1134 6.50767V6.50763V6.50751C44.7703 5.83969 44.3492 5.01922 43.8568 4.25232C43.1948 3.2208 42.3264 2.1499 41.1149 1.34214C39.8875 0.523914 38.3862 0.0281975 36.5389 0.0281982ZM60.7978 20.4325C61.0216 22.5007 61.406 24.4339 62.7225 26.2374C64.0256 28.0227 65.1595 28.4499 66.4105 28.9213L66.4256 28.927L66.4775 28.9464C67.1175 29.1873 67.9079 29.485 68.6703 30.0212C69.4887 30.5968 70.2189 31.4008 70.8619 32.5933C72.2814 35.2255 71.5296 37.7367 70.7919 40.2017L70.7279 40.4163L70.707 40.4863C69.9208 43.1193 68.9335 46.4256 68.9335 51.4543C68.9331 55.4132 70.259 57.7667 71.8834 59.243C73.5709 60.7769 75.7213 61.4862 77.4827 61.8074C78.8587 62.0583 80.5027 62.1081 82.2842 62.0987C82.853 62.0955 83.4423 62.0865 84.0369 62.0767H84.0377C85.2462 62.0574 86.4766 62.0382 87.6045 62.0705C89.2795 62.1187 90.9811 62.281 92.3392 62.8309C93.7716 63.4116 95.046 64.5372 95.2808 66.5255C95.4697 68.1231 94.9831 69.4552 93.9628 70.3639C93.0482 71.179 91.8465 71.5263 90.7634 71.6779C88.5713 71.9848 86.0097 71.5974 84.5266 71.2808L85.1151 68.0741C86.5043 68.3707 88.677 68.6739 90.3733 68.4361C91.2345 68.3156 91.7658 68.0823 92.034 67.8432C92.1965 67.6986 92.3423 67.5045 92.2756 66.939C92.229 66.5467 92.051 66.206 91.2743 65.8913C90.4229 65.5465 89.1584 65.3851 87.5238 65.3381C86.4558 65.3075 85.3382 65.3254 84.171 65.3442C83.5609 65.354 82.9367 65.3638 82.2993 65.3675C80.4981 65.3769 78.6299 65.332 76.9775 65.0304C74.9605 64.6627 72.2049 63.8095 69.9314 61.7432C69.2672 61.1397 68.6555 60.4423 68.1196 59.6414C65.809 60.3323 63.1743 61.4413 61.25 62.9878C60.1021 63.9104 59.2833 64.9279 58.8856 66.0229C58.5028 67.0779 58.4675 68.3184 59.0773 69.8335C59.6696 71.3041 60.4876 71.9934 61.3076 72.2692C62.1646 72.5577 63.1913 72.4498 64.2396 71.9754C64.2896 71.9529 64.3392 71.9296 64.3885 71.9055C63.784 70.96 63.3583 69.7669 63.1409 68.3074C62.8827 66.5721 63.0766 65.1101 63.6624 64.0102C64.2574 62.8935 65.2205 62.2303 66.2768 62.1147C68.4552 61.876 70.3469 63.8868 70.3469 66.9165C70.3469 68.5227 69.6788 70.0583 68.7422 71.302C68.565 71.537 68.376 71.765 68.1764 71.9844C69.4925 72.3877 71.0657 72.1017 72.2443 71.6514C73.5259 71.1615 74.1205 70.4378 74.8181 69.5879C75.062 69.2913 75.318 68.9791 75.6206 68.6563C76.1928 68.0459 76.9124 67.4698 77.963 67.2646C78.9753 67.0673 80.152 67.2418 81.6082 67.7819L80.8693 70.1003C79.596 69.628 78.8431 69.5843 78.3678 69.677C77.9312 69.7624 77.6062 69.9859 77.2184 70.3994C77.0692 70.5592 76.9056 70.7606 76.7211 70.9882C75.9796 71.9031 74.8968 73.2384 73.0029 73.962C71.6008 74.4981 69.4732 74.9529 67.4947 74.324C67.03 74.1761 66.5733 73.9681 66.1397 73.6882C65.8087 73.895 65.4671 74.0785 65.1183 74.2362C63.7249 74.8667 62.1339 75.1155 60.6312 74.6096C59.7972 74.3289 59.0386 73.8321 58.3888 73.1133C56.4539 74.2153 54.6845 74.4805 53.19 74.6178C52.939 74.6411 52.7041 74.6611 52.4837 74.6799C51.0541 74.8017 50.2171 74.8732 49.4517 75.3893C48.934 75.7386 48.7984 76.0508 48.7298 76.3613C48.6443 76.7507 48.6541 77.1577 48.6708 77.8306C48.6742 77.9692 48.678 78.1191 48.6814 78.2825C48.698 79.1283 48.6871 80.2598 48.2311 81.4137C47.7573 82.6117 46.8828 83.6511 45.4869 84.5276C43.6035 85.7097 41.5451 85.6406 39.6674 85.1348C37.8083 84.6338 35.9281 83.6499 34.2577 82.7371C34.0197 82.6072 33.7866 82.4789 33.5582 82.3534C32.112 81.5579 30.8549 80.8665 29.74 80.4649C28.4057 79.9844 27.8403 80.1315 27.5622 80.3619C27.1737 80.6835 27.0373 81.0435 27.1124 81.7491C27.2015 82.5847 27.573 83.5997 28.0859 84.8843C28.1262 84.9852 28.1675 85.0882 28.2095 85.1928C28.6549 86.3021 29.1782 87.6056 29.4096 88.8351C29.6737 90.2374 29.6285 91.9208 28.4085 93.2741C26.3532 95.5541 23.4847 95.4601 21.3257 93.8617C19.1923 92.2816 17.7065 89.2767 17.7065 85.5078H20.7362C20.7362 88.3652 21.8491 90.2844 23.0403 91.1665C24.206 92.0299 25.388 91.9363 26.2366 90.9949C26.4686 90.7375 26.6054 90.3616 26.4405 89.486C26.2753 88.6083 25.8784 87.6158 25.3952 86.4072L25.3033 86.1775C24.824 84.9771 24.2512 83.5183 24.1024 82.1222C23.9398 80.5956 24.2721 78.9657 25.7176 77.7685C27.2737 76.4802 29.1806 76.8173 30.6996 77.3644C32.049 77.8507 33.5403 78.6723 34.9607 79.4552C35.1847 79.5786 35.407 79.7012 35.6267 79.8213C37.3138 80.7431 38.9145 81.5628 40.4018 81.9632C41.8712 82.3591 43.0252 82.2909 43.9629 81.7021C44.9131 81.106 45.2755 80.558 45.4441 80.1311C45.6304 79.6595 45.6675 79.1288 45.6524 78.352C45.6505 78.2552 45.6471 78.1489 45.6437 78.0353C45.6232 77.3714 45.5952 76.4549 45.7823 75.6054C46.0364 74.4519 46.6579 73.4186 47.8459 72.6173C49.2953 71.6399 50.9662 71.5133 52.3319 71.4095H52.3326C52.5405 71.3936 52.7413 71.3784 52.9329 71.3609C54.1933 71.2452 55.454 71.0467 56.8084 70.3148C56.1664 68.4443 56.1997 66.6992 56.7701 65.1285C57.3761 63.4594 58.5448 62.1048 59.8927 61.0216C61.9571 59.3627 64.6202 58.1974 66.9653 57.4484C66.2965 55.7887 65.9033 53.807 65.9037 51.4543C65.9037 45.9116 67.0085 42.2113 67.8178 39.5022L67.8439 39.4141C68.6881 36.5869 68.9168 35.486 68.2431 34.2371C67.8193 33.4507 67.408 33.0352 67.016 32.7595C66.5884 32.4588 66.1215 32.2748 65.4269 32.013C63.9969 31.4742 62.1915 30.7931 60.3422 28.2599C58.5009 25.7376 58.0328 23.069 57.7885 20.8116C57.7393 20.3565 57.701 19.9435 57.665 19.5539V19.5536V19.5531L57.6646 19.5526C57.6063 18.9218 57.5537 18.3527 57.4692 17.7672C57.3401 16.8705 57.1613 16.1721 56.8754 15.6036L59.5382 14.044C60.0623 15.0862 60.31 16.2054 60.463 17.2645C60.5581 17.9248 60.6274 18.6626 60.6933 19.3657V19.3663C60.7277 19.7368 60.7614 20.0977 60.7978 20.4325ZM66.2828 70.5506C66.5347 70.3014 66.7687 70.035 66.9789 69.7559C67.6973 68.8018 68.0746 67.7954 68.0746 66.9165C68.0746 64.9761 67.0323 64.496 66.5067 64.5536C66.2113 64.5859 65.8799 64.7677 65.6329 65.2315C65.3773 65.7112 65.183 66.5647 65.3845 67.9184C65.5621 69.1115 65.8931 69.9541 66.2828 70.5506Z" fill="white"/>
</svg>
